<?xml version='1.0' encoding='UTF-8' standalone='no'?>
<svg
  xmlns:dc="http://purl.org/dc/elements/1.1/"
  xmlns:cc="http://creativecommons.org/ns#"
  xmlns:rdf="http://www.w3.org/1999/02/22-rdf-syntax-ns#"
  xmlns:svg="http://www.w3.org/2000/svg"
  xmlns="http://www.w3.org/2000/svg"
  version="1.1"
  width="3.1in"
  height="0.79in"
  viewBox="0 0 3100 790"
  >
  <desc>
    <referenceFile>2x 18650 battery_a073d98e2829ed2513701f253b833ca9_1_breadboard.svg</referenceFile>
  </desc>
  <metadata>
    <rdf:RDF>
      <cc:Work
        rdf:about="breadboard view holder for single 18650 battery">
        <dc:format>image/svg+xml</dc:format>
        <dc:type
          rdf:resource="http://purl.org/dc/dcmitype/StillImage"
        />
        <dc:title/>
      </cc:Work>
    </rdf:RDF>
  </metadata>
  <g
    id="breadboard">
    <rect
      width="3059"
      height="791.54"
      x="41"
      rx="50"
    />
    <path
      stroke-width="18.515"
      stroke="#c9c9c9"
      fill="none"
      d="m 3052.8314,400.0001 2.7289,209.52715 c 0.1826,14.02297 -8.0508,25.64138 -17.9013,25.64138 -9.8504,0 -17.8445,-11.61722 -17.8445,-25.64138 L 3000.8714,145.7876 c 0,-14.0968 -8.1077,-25.6414 -17.9013,-25.6414 -9.7937,0 -17.9013,11.5446 -17.9013,25.6414 l -18.9432,359.2726 c 0,14.0967 -8.0698,25.6595 -17.8445,25.6595 -9.8694,0 -17.8824,-11.5628 -17.8824,-25.6595 v -282.294"
    />
    <rect
      stroke-width="14.21747208"
      fill="#c9c9c9"
      width="61.16"
      height="285.64"
      x="96.05"
      y="249.43"
    />
    <rect
      stroke="none"
      fill="#353535"
      width="2690"
      height="500"
      x="211"
      y="18"
      rx="80"
    />
    <rect
      fill="#ce925d"
      width="800"
      height="500"
      x="2000"
      y="18"
    />
    <rect
      fill="#ce925d"
      width="2500"
      height="718.16"
      x="222"
      y="17"
      rx="240"
      ry="82"
    />
    <rect
      opacity="0.35"
      fill="black"
      width="2681"
      height="400"
      x="221"
      y="47.71"
      rx="90"
      ry="54"
    />
    <rect
      stroke="none"
      fill="#353535"
      width="2690"
      height="350"
      x="211"
      y="385.16"
      rx="80"
    />
    <rect
      stroke="none"
      fill="#353535"
      width="2300"
      height="350"
      x="601"
      y="182.7"
      rx="80"
    />
    <rect
      fill="#ce925d"
      width="800"
      height="552.46"
      x="2000"
      y="182.7"
    />
    <rect
      fill="#ce925d"
      width="2500"
      height="418.16"
      x="222"
      y="317"
      rx="240"
      ry="82"
    />
    <rect
      fill="#ce925d"
      width="2500"
      height="300"
      x="222"
      y="182.7"
      rx="90"
      ry="130"
    />
    <ellipse
      fill="#b2b2b2"
      cx="223.5"
      cy="376.0"
      rx="10.1"
      ry="286.0"
    />
    <ellipse
      stroke="none"
      fill="#7c7c7c"
      cx="222"
      cy="390"
      rx="4"
      ry="107"
    />
    <rect
      stroke="none"
      fill="#7c7c7c"
      width="67"
      height="167"
      x="157.2"
      y="307"
      rx="25"
    />
    <path
      stroke="none"
      fill="#7c7c7c"
      d="m196.8,307a29 29 90 0 0 25 -23v213a29 29 90 0 0 -25 -23z"
    />
    <rect
      stroke="none"
      fill="white"
      opacity="0.35"
      width="2542.2"
      height="232.9"
      x="289.2"
      y="477.9"
      rx="66"
      ry="48.5"
    />
    <path
      stroke="none"
      fill="white"
      opacity="0.2"
      d="m2893.84 759.5 h-758.6 l 9.6 -3.4 c 1,-13 18,-27 42,-37 22,-9 28.5,-17.15 80,-17.15 h495.4 c 51.5,0 58,8.15 80,17.15 24,10 41,24 42,37 z"
    />
    <path
      stroke="none"
      fill="white"
      opacity="0.2"
      d="m1005.8 759.5 h-758.6 l 9.6 -3.4 c 1,-13 18,-27 42,-37 22,-9 28.5,-17.15 80,-17.15 h495.4 c 51.5,0 58,8.15 80,17.15 24,10 41,24 42,37 z"
    />
    <text
      fill="#f9f9f9"
      font-family="'Droid Sans'"
      font-size="227.48735046"
      y="487.54095"
      x="1050.1272">18650 battery</text>
    <rect
      id="connector0pin"
      fill="#c9c9c9"
      x="3000"
      y="350"
      height="100"
      width="100"
    />
    <rect
      id="connector1pin"
      fill="#c9c9c9"
      x="0"
      y="350"
      height="100"
      width="100"
    />
  </g>
</svg>
