<?xml version='1.0' encoding='UTF-8' standalone='no'?>
<svg
  xmlns:dc="http://purl.org/dc/elements/1.1/"
  xmlns:cc="http://creativecommons.org/ns#"
  xmlns:rdf="http://www.w3.org/1999/02/22-rdf-syntax-ns#"
  xmlns:svg="http://www.w3.org/2000/svg"
  xmlns="http://www.w3.org/2000/svg"
  viewBox="0 0 3100.0011 1583.0713"
  x="0px"
  width="3.1000001in"
  id="Layer_1"
  version="1.1"
  height="1.5830709in"
  y="0px"
  gorn="0">
  <desc
    id="desc2">
    <referenceFile>2x 18650 battery_a073d98e2829ed2513701f253b833ca9_1_breadboard.svg</referenceFile>
  </desc>
  <metadata
    id="metadata124">
    <rdf:RDF>
      <cc:Work
        rdf:about="">
        <dc:format>image/svg+xml</dc:format>
        <dc:type
          rdf:resource="http://purl.org/dc/dcmitype/StillImage"
        />
        <dc:title/>
      </cc:Work>
    </rdf:RDF>
  </metadata>
  <defs
    id="defs122"
  />
  <g
    id="breadboard">
    <path
      stroke-width="14.21747208"
      fill="#1a1a1a"
      gorn="0.7"
      d="M 41.4374,40.7517 C 41.4374,16.7019 64.1503,0 84.0974,0 H 3057.341 c 28.2443,0 42.66,13.6793 42.66,40.7517 v 1501.586 c 0,21.4977 -17.5793,40.7336 -42.66,40.7336 H 84.0974 c -23.1104,0 -42.66,-16.2147 -42.66,-40.7517 z"
      id="path8"
    />
    <path
      stroke-width="18.51462555"
      stroke="#c9c9c9"
      fill="none"
      gorn="0.8"
      d="m 3055.5603,1086.5668 v 323.1285 c 0,14.0241 -8.0508,25.6414 -17.9013,25.6414 -9.8504,0 -17.8445,-11.6173 -17.8445,-25.6414 l -18.9431,-463.73964 c 0,-14.09676 -8.1077,-25.64138 -17.9013,-25.64138 -9.7937,0 -17.9013,11.54462 -17.9013,25.64138 l -18.9432,359.27254 c 0,14.0968 -8.0698,25.6596 -17.8445,25.6596 -9.8694,0 -17.8823,-11.5628 -17.8823,-25.6596 v -282.2939"
      id="path10"
    />
    <rect
      stroke-width="14.21747208"
      fill="#c9c9c9"
      gorn="0.12"
      y="-1335.2489"
      height="285.65955"
      id="rect18"
      width="61.167522"
      x="-157.21732"
      transform="scale(-1)"
    />
    <path
      stroke-width="14.21747208"
      fill="#353535"
      gorn="0.13"
      d="m 211.0713,895.43239 c 0,-42.36287 36.2383,-76.9437 80.5464,-76.9437 h 2529.1419 c 44.3081,0 80.5464,34.58083 80.5464,76.9437 v 564.26121 c 0,42.3084 -36.2383,76.9437 -80.5464,76.9437 H 291.5986 c -44.3081,0 -80.5463,-34.6353 -80.5463,-76.9437 l 0.015,-564.26121 v 0 z"
      id="path22"
    />
    <path
      stroke-width="29.0439167"
      fill="#ce925d"
      gorn="0.14"
      d="M 2800.0009,1535.4422 H 496.2282 c -145.9794,0 -265.3712,-34.5808 -265.3712,-76.9423 V 894.11025 c 0,-42.30703 119.3918,-76.9423 265.3712,-76.9423 h 2303.7727 z"
      id="path24"
    />
    <path
      stroke-width="14.21747208"
      opacity="0.35"
      gorn="0.15"
      d="m 2814.6599,847.89405 c 33.34,0 75.8863,29.49611 75.8863,64.45669 v 161.50466 c 0,-34.9968 -42.5463,-89.84533 -75.8863,-89.84533 H 303.8551 c -33.3591,0 -75.8866,54.84853 -75.8866,89.84533 V 912.33258 c 0,-34.99687 42.5275,-64.45667 75.8866,-64.45667 h 2510.8048 z"
      id="path26"
      enable-background="new    "
    />
    <path
      stroke-width="14.21747208"
      fill="#b2b2b2"
      gorn="0.16"
      d="m 213.3444,1182.3224 c 0,-160.8541 6.4028,-291.21523 14.34,-291.21523 7.9372,0 7.9372,582.41233 0,582.41233 -7.9372,0 -14.34,-130.3807 -14.34,-291.1971"
      id="path28"
    />
    <path
      stroke-width="14.21747208"
      fill="#7c7c7c"
      gorn="0.17"
      d="m 218.7053,1083.049 c 5.2474,0 5.2474,215.1944 0,215.1944 h 0.152 c 0,-13.2647 -11.2522,-24.0135 -25.1564,-24.0135 h -11.366 c -13.8663,0 -25.1377,-10.7489 -25.1377,-24.0303 v -118.998 c 0,-13.2102 11.2714,-24.0316 25.1377,-24.0316 h 11.366 c 13.9042,0 25.1564,-10.7489 25.1564,-23.994 l -0.152,-0.1396 v 0 z"
      id="path30"
    />
    <path
      stroke-width="14.21747208"
      fill="#ffffff"
      opacity="0.35"
      gorn="0.18"
      d="m 289.193,1324.5004 c 0,-25.6413 29.1725,-46.4339 65.1645,-46.4339 l 2411.9594,-10e-5 c 35.9352,0 65.1266,18.9833 65.1266,44.6428 v 139.9889 c 0,25.6595 -29.1725,48.2797 -65.1266,48.2797 H 354.3763 c -35.9918,0 -65.1643,-20.8108 -65.1643,-46.4703 v -140.0071 z"
      id="path54"
      enable-background="new    "
    />
    <path
      stroke-width="18.51462746"
      fill="#ffffff"
      opacity="0.2"
      gorn="0.25.0.0.0.0.0.1"
      d="m 2893.8424,1559.6917 -9.68,-3.4387 c 0,0 0,-12.7942 -21.5194,-26.4023 -12.9003,-8.1241 -23.6032,-11.6717 -39.4966,-18.9455 -15.9122,-7.239 -38.5493,-8.7943 -57.8903,-8.7943 -5.342,0 -496.1409,0 -501.5776,0 -19.341,0 -41.9212,1.5553 -57.8146,8.7943 -15.9312,7.2738 -26.672,10.8214 -39.4965,18.9455 -21.5952,13.6081 -21.5763,26.4023 -21.5763,26.4023 l -9.4905,3.4024 z"
      id="path96"
      enable-background="new    "
    />
    <path
      stroke-width="18.51462746"
      fill="#ffffff"
      opacity="0.2"
      gorn="0.26.0.0.0.0.0.1"
      d="m 1005.8514,1559.6917 -9.68,-3.4387 c 0,0 0,-12.7942 -21.5195,-26.4023 -12.9004,-8.1241 -23.5842,-11.6717 -39.4965,-18.9455 -15.9692,-7.239 -38.5494,-8.7943 -57.8904,-8.7943 -5.342,0 -496.1598,0 -501.5966,0 -19.341,0 -41.9211,1.5553 -57.8333,8.7943 -15.9313,7.2738 -26.6532,10.8214 -39.5346,18.9455 -21.5573,13.6081 -21.5384,26.4023 -21.5384,26.4023 l -9.4905,3.4024 z"
      id="path102"
      enable-background="new    "
    />
    <text
      fill="#f9f9f9"
      font-family="'Droid Sans'"
      font-size="227.48735046"
      x="1050.1272"
      id="tspan4376"
      y="1302.3885"
      gorn="0.31.0">18650 battery</text>
    <path
      stroke-width="18.51462555"
      stroke="#c9c9c9"
      fill="none"
      id="path90"
      d="m 3052.8314,400.0001 2.7289,209.52715 c 0.1826,14.02297 -8.0508,25.64138 -17.9013,25.64138 -9.8504,0 -17.8445,-11.61722 -17.8445,-25.64138 L 3000.8714,145.7876 c 0,-14.0968 -8.1077,-25.6414 -17.9013,-25.6414 -9.7937,0 -17.9013,11.5446 -17.9013,25.6414 l -18.9432,359.2726 c 0,14.0967 -8.0698,25.6595 -17.8445,25.6595 -9.8694,0 -17.8824,-11.5628 -17.8824,-25.6595 v -282.294"
      gorn="0.8"
    />
    <rect
      stroke-width="14.21747208"
      fill="#c9c9c9"
      x="-157.21732"
      width="61.167522"
      id="rect92"
      height="285.65955"
      y="-535.08081"
      gorn="0.12"
      transform="scale(-1)"
    />
    <path
      stroke-width="14.21747208"
      fill="#353535"
      id="path95"
      d="m 211.0713,95.2643 c 0,-42.3629 36.2383,-76.9437 80.5464,-76.9437 h 2529.1419 c 44.3081,0 80.5464,34.5808 80.5464,76.9437 v 564.26127 c 0,42.30842 -36.2383,76.9437 -80.5464,76.9437 H 291.5986 c -44.3081,0 -80.5463,-34.63528 -80.5463,-76.9437 l 0.015,-564.26127 v 0 z"
      gorn="0.13"
    />
    <path
      stroke-width="29.0439167"
      fill="#ce925d"
      id="path97"
      d="M 2800.0009,735.27418 H 496.2282 c -145.9794,0 -265.3712,-34.58083 -265.3712,-76.94231 V 93.9422 c 0,-42.3071 119.3918,-76.9423 265.3712,-76.9423 h 2303.7727 z"
      gorn="0.14"
    />
    <path
      stroke-width="14.21747208"
      opacity="0.35"
      enable-background="new    "
      id="path99"
      d="m 2814.6599,47.726 c 33.34,0 75.8863,29.4961 75.8863,64.4567 v 161.5047 c 0,-34.9969 -42.5463,-89.8454 -75.8863,-89.8454 H 303.8551 c -33.3591,0 -75.8866,54.8485 -75.8866,89.8454 V 112.1645 c 0,-34.9969 42.5275,-64.4567 75.8866,-64.4567 h 2510.8048 z"
      gorn="0.15"
    />
    <path
      stroke-width="14.21747208"
      fill="#b2b2b2"
      id="path101"
      d="m 213.3444,382.1543 c 0,-160.8541 6.4028,-291.2152 14.34,-291.2152 7.9372,0 7.9372,582.41238 0,582.41238 -7.9372,0 -14.34,-130.38068 -14.34,-291.19718"
      gorn="0.16"
    />
    <path
      stroke-width="14.21747208"
      fill="#7c7c7c"
      id="path103"
      d="m 218.7053,282.8809 c 5.2474,0 5.2474,215.1944 0,215.1944 h 0.152 c 0,-13.2646 -11.2522,-24.0135 -25.1564,-24.0135 h -11.366 c -13.8663,0 -25.1377,-10.7488 -25.1377,-24.0303 v -118.998 c 0,-13.2102 11.2714,-24.0316 25.1377,-24.0316 h 11.366 c 13.9042,0 25.1564,-10.7488 25.1564,-23.994 l -0.152,-0.1396 v 0 z"
      gorn="0.17"
    />
    <path
      stroke-width="14.21747208"
      fill="#ffffff"
      opacity="0.35"
      enable-background="new    "
      id="path105"
      d="m 289.193,524.3324 c 0,-25.6414 29.1725,-46.434 65.1645,-46.434 h 2411.9594 c 35.9352,0 65.1266,18.9832 65.1266,44.6428 v 139.98885 c 0,25.65953 -29.1725,48.27968 -65.1266,48.27968 H 354.3763 c -35.9918,0 -65.1643,-20.81076 -65.1643,-46.4703 V 524.3324 Z"
      gorn="0.18"
    />
    <path
      stroke-width="18.51462746"
      fill="#ffffff"
      opacity="0.2"
      enable-background="new    "
      id="path109"
      d="m 2893.8424,759.52361 -9.68,-3.43867 c 0,0 0,-12.79417 -21.5194,-26.40228 -12.9003,-8.1241 -23.6032,-11.67167 -39.4966,-18.94553 -15.9122,-7.23895 -38.5493,-8.79424 -57.8903,-8.79424 -5.342,0 -496.1409,0 -501.5776,0 -19.341,0 -41.9212,1.55529 -57.8146,8.79424 -15.9312,7.27386 -26.672,10.82143 -39.4965,18.94553 -21.5952,13.60811 -21.5763,26.40228 -21.5763,26.40228 l -9.4905,3.40237 z"
      gorn="0.25.0.0.0.0.0.1"
    />
    <path
      stroke-width="18.51462746"
      fill="#ffffff"
      opacity="0.2"
      enable-background="new    "
      id="path113"
      d="m 1005.8514,759.52361 -9.68,-3.43867 c 0,0 0,-12.79417 -21.5195,-26.40228 -12.9004,-8.1241 -23.5842,-11.67167 -39.4965,-18.94553 -15.9692,-7.23895 -38.5494,-8.79424 -57.8904,-8.79424 -5.342,0 -496.1598,0 -501.5966,0 -19.341,0 -41.9211,1.55529 -57.8333,8.79424 -15.9313,7.27386 -26.6532,10.82143 -39.5346,18.94553 -21.5573,13.60811 -21.5384,26.40228 -21.5384,26.40228 l -9.4905,3.40237 z"
      gorn="0.26.0.0.0.0.0.1"
    />
    <text
      fill="#f9f9f9"
      font-family="'Droid Sans'"
      font-size="227.48735046"
      y="487.54095"
      id="text115"
      x="1050.1272">18650 battery</text>
    <rect
      y="1050.0712"
      x="3000.001"
      height="100.00004"
      width="100.00003"
      id="connector0pin"
      fill="#c9c9c9"
    />
    <rect
      id="connector1pin"
      width="100.00003"
      height="100.00004"
      x="3000.001"
      y="350.07095"
      fill="#c9c9c9"
    />
    <rect
      y="350.07095"
      x="0"
      height="100.00004"
      width="100.00003"
      id="connector2pin"
      fill="#c9c9c9"
    />
    <rect
      id="connector3pin"
      width="100.00003"
      height="100.00004"
      x="0"
      y="1050.0712"
      fill="#c9c9c9"
    />
  </g>
</svg>
